<svg width="240" height="80" viewBox="0 0 240 80" fill="none" xmlns="http://www.w3.org/2000/svg">
  <!-- Icon -->
  <path d="M10 10 C10 4.47715 14.4772 0 20 0 H32 C37.5228 0 42 4.47715 42 10 V42 C42 46.4183 45.5817 50 50 50 C54.4183 50 58 46.4183 58 42 V22 L82 46 V50 C82 66.5685 67.6731 80 50 80 C32.3269 80 18 66.5685 18 50 V10 H10 Z" fill="#00094B"/>
  <path d="M58 0 L82 24 H58 V0 Z" fill="url(#paint0_linear)"/>
  
  <!-- Text -->
  <text x="95" y="56" font-family="system-ui, -apple-system, sans-serif" font-weight="600" font-size="44" fill="#00094B" letter-spacing="-1">utmify</text>

  <defs>
    <linearGradient id="paint0_linear" x1="58" y1="0" x2="82" y2="24" gradientUnits="userSpaceOnUse">
      <stop stop-color="#00D2FF"/>
      <stop offset="1" stop-color="#0057FF"/>
    </linearGradient>
  </defs>
</svg>
